<?xml version="1.0" encoding="utf-8"?>
<!-- Generator: Adobe Illustrator 16.0.4, SVG Export Plug-In . SVG Version: 6.00 Build 0)  -->
<!DOCTYPE svg PUBLIC "-//W3C//DTD SVG 1.1//EN" "http://www.w3.org/Graphics/SVG/1.1/DTD/svg11.dtd">
<svg version="1.1"
	 id="svg11836" xmlns:svg="http://www.w3.org/2000/svg" xmlns:rdf="http://www.w3.org/1999/02/22-rdf-syntax-ns#" xmlns:cc="http://creativecommons.org/ns#" xmlns:dc="http://purl.org/dc/elements/1.1/"
	 xmlns="http://www.w3.org/2000/svg" xmlns:xlink="http://www.w3.org/1999/xlink" x="0px" y="0px" width="215.833px"
	 height="61.338px" viewBox="0 0 215.833 61.338" enable-background="new 0 0 215.833 61.338" xml:space="preserve">
<g id="layer1" transform="translate(35.714285,-371.61926)">
	<g id="g11653" transform="translate(191.39064,-942.17025)">
		<g id="g6325" transform="matrix(6.1229238,0,0,-6.1229238,-3403.6931,1737.9985)">
			<g>
				<g id="g6327">
					<g id="g6333" transform="translate(538.4872,48.883896)">
						<path id="path6335" d="M-13.673,13.828c-0.114,0.205-0.261,0.31-0.494,0.31c-0.245,0-0.514-0.179-0.514-0.468
							c0-0.257,0.236-0.392,0.428-0.47l0.22-0.093c0.438-0.182,0.764-0.44,0.764-0.99c0-0.598-0.432-1.027-0.984-1.027
							c-0.497,0-0.885,0.393-0.951,0.922l0.388,0.087c-0.004-0.362,0.265-0.624,0.596-0.624c0.331,0,0.567,0.297,0.567,0.642
							c0,0.354-0.265,0.506-0.53,0.624l-0.212,0.096c-0.351,0.161-0.671,0.375-0.671,0.833c0,0.533,0.442,0.852,0.907,0.852
							c0.343,0,0.625-0.179,0.792-0.498L-13.673,13.828z"/>
					</g>
					<g id="g6337" transform="translate(540.1411,46.216507)">
						<path id="path6339" d="M-13.673,13.828h-0.384v2.916h-0.73v0.376h1.845v-0.376h-0.731V13.828z"/>
					</g>
					<g id="g6341" transform="translate(541.505,49.508102)">
						<path id="path6343" d="M-13.673,13.828v-1.942c0-0.538,0.151-1.035,0.743-1.035s0.743,0.497,0.743,1.035v1.942h0.384v-2.082
							c0-0.725-0.421-1.28-1.127-1.28c-0.706,0-1.127,0.555-1.127,1.28v2.082H-13.673z"/>
					</g>
					<g id="g6345" transform="translate(544.2576,46.591904)">
						<path id="path6347" d="M-13.673,13.828h0.135c0.783,0,1.461,0.314,1.461,1.27c0,0.961-0.678,1.271-1.461,1.271h-0.135V13.828z
							 M-14.057,16.744h0.637c0.944,0,1.727-0.532,1.727-1.628c0-1.122-0.768-1.663-1.74-1.663h-0.624V16.744z"/>
					</g>
					<path id="path6349" d="M533.32,60.044h-0.384v3.292h0.384V60.044z"/>
					<g id="g6351" transform="translate(550.1942,47.862396)">
						<path id="path6353" d="M-13.673,13.828c0,0.725-0.506,1.332-1.229,1.332c-0.722,0-1.228-0.607-1.228-1.332
							c0-0.751,0.563-1.332,1.228-1.332C-14.236,12.496-13.673,13.077-13.673,13.828 M-13.289,13.828
							c0-0.978-0.722-1.715-1.613-1.715c-0.89,0-1.612,0.737-1.612,1.715c0,0.943,0.731,1.715,1.612,1.715
							C-14.02,15.543-13.289,14.771-13.289,13.828"/>
					</g>
					<g id="g6355" transform="translate(554.93491,47.875397)">
						<path id="path6357" d="M-13.673,13.828v-0.131c0-0.904-0.596-1.598-1.457-1.598c-0.862,0-1.556,0.795-1.556,1.707
							c0,0.947,0.711,1.725,1.596,1.725c0.478,0,0.952-0.231,1.254-0.638l-0.269-0.275c-0.221,0.323-0.593,0.537-0.968,0.537
							c-0.69,0-1.229-0.598-1.229-1.335c0-0.691,0.531-1.345,1.196-1.345c0.478,0,0.992,0.44,1.008,0.978h-0.796v0.375H-13.673z"/>
					</g>
					<g id="g6359" transform="translate(557.1321,48.181107)">
						<path id="path6361" d="M-13.673,13.828v1.327h0.384v-3.291h-0.384v1.579h-1.465v-1.579h-0.384v3.291h0.384v-1.327H-13.673z"/>
					</g>
					<path id="path6363" d="M544.771,60.044h-0.384v3.292h0.384V60.044z"/>
					<g id="g6365" transform="translate(559.37019,46.583298)">
						<path id="path6367" d="M-13.673,13.828h0.294c0.355,0,0.726,0.113,0.726,0.581c0,0.462-0.44,0.559-0.783,0.559h-0.237V13.828z
							 M-13.673,15.294h0.098c0.364,0,0.661,0.079,0.661,0.551c0,0.463-0.294,0.541-0.653,0.541h-0.106V15.294z M-14.057,16.753
							h0.376c0.579,0,1.126-0.161,1.126-0.904c0-0.239-0.122-0.519-0.331-0.624v-0.008c0.364-0.071,0.617-0.45,0.617-0.834
							c0-0.66-0.526-0.922-1.069-0.922h-0.719V16.753z"/>
					</g>
					<g id="g6369" transform="translate(561.5876,46.591904)">
						<path id="path6371" d="M-13.673,13.828h0.935v-0.375h-1.319v3.291h0.384V13.828z"/>
					</g>
					<path id="path6373" d="M549.473,60.044h-0.384v3.292h0.384V60.044z"/>
					<g id="g6375" transform="translate(532.7198,51.701706)">
						<path id="path6377" d="M-13.673,13.828c0.946,0.371,2.005,1.383,2.472,2.749h-2.228v0.499h2.879
							c-0.056-0.256-0.214-1.012-0.823-1.901c0.253-0.216,0.879-0.76,1.449-1.36l-0.404-0.436c-0.175,0.22-0.487,0.61-1.336,1.402
							c-0.299-0.366-0.895-1.027-1.713-1.383L-13.673,13.828z"/>
					</g>
					<g id="g6379" transform="translate(537.9548,53.584793)">
						<path id="path6381" d="M-13.673,13.828c0.184-0.083,0.544-0.248,0.994-0.65c0.377,0.517,0.475,1.008,0.514,1.195h-1.499
							c-0.425-0.628-0.789-0.898-1.127-1.108l-0.321,0.385c0.749,0.417,1.139,0.97,1.434,1.791l0.519-0.105
							c-0.082-0.193-0.133-0.312-0.227-0.487h1.825c-0.112-0.718-0.48-2.821-3.007-3.45l-0.274,0.454
							c0.29,0.051,1.019,0.179,1.82,0.935c-0.428,0.403-0.818,0.6-0.986,0.687L-13.673,13.828z"/>
					</g>
					<g id="g6383" transform="translate(540.39349,51.852997)">
						<path id="path6385" d="M-13.673,13.828c1.615,0.142,2.348,0.665,2.904,2.492l0.464-0.22c-0.583-1.736-1.307-2.588-3.248-2.822
							L-13.673,13.828z M-10.456,16.572c-0.098,0.413-0.18,0.6-0.223,0.701l0.348,0.083c0.12-0.265,0.201-0.568,0.231-0.678
							L-10.456,16.572z M-11.081,16.476c-0.06,0.312-0.115,0.495-0.202,0.738l0.352,0.082c0.107-0.275,0.146-0.394,0.218-0.728
							L-11.081,16.476z M-12.713,14.959c-0.497,0.29-0.994,0.463-1.204,0.532l0.196,0.476c0.16-0.049,0.798-0.252,1.205-0.49
							L-12.713,14.959z M-12.383,16.022c-0.425,0.23-0.827,0.385-1.196,0.5l0.206,0.481c0.646-0.206,0.968-0.362,1.208-0.481
							L-12.383,16.022z"/>
					</g>
					<g id="g6387" transform="translate(548.24699,51.852997)">
						<path id="path6389" d="M-13.673,13.828c1.615,0.142,2.348,0.665,2.904,2.492l0.464-0.22c-0.583-1.736-1.307-2.588-3.248-2.822
							L-13.673,13.828z M-10.456,16.572c-0.098,0.413-0.18,0.6-0.223,0.701l0.348,0.083c0.12-0.265,0.201-0.568,0.231-0.678
							L-10.456,16.572z M-11.081,16.476c-0.06,0.312-0.115,0.495-0.202,0.738l0.352,0.082c0.107-0.275,0.146-0.394,0.218-0.728
							L-11.081,16.476z M-12.713,14.959c-0.497,0.29-0.994,0.463-1.204,0.532l0.196,0.476c0.16-0.049,0.798-0.252,1.205-0.49
							L-12.713,14.959z M-12.383,16.022c-0.424,0.23-0.827,0.385-1.196,0.5l0.206,0.481c0.647-0.206,0.968-0.362,1.208-0.481
							L-12.383,16.022z"/>
					</g>
					<g id="g6391" transform="translate(555.505,54.720993)">
						<path id="path6393" d="M-13.673,13.828c-0.03,0.184-0.112,0.491-0.184,0.665l0.351,0.068c0.081-0.225,0.12-0.362,0.18-0.646
							L-13.673,13.828z M-14.123,14.525c0.078-0.193,0.12-0.349,0.18-0.638l-0.129-0.018V13.86h0.257
							c-0.072-1.993-1.01-3.124-2.617-3.492l-0.27,0.491c0.69,0.142,2.108,0.445,2.339,2.506h-2.712v0.495h2.746
							c-0.038,0.229-0.077,0.366-0.162,0.601L-14.123,14.525z"/>
					</g>
					<g id="g6395" transform="translate(558.9539,53.346497)">
						<path id="path6397" d="M-13.673,13.828c0-0.72-0.124-1.283-0.622-1.686c-0.389-0.317-0.788-0.398-1.653-0.499l-0.158,0.504
							c1.097,0.073,1.928,0.256,1.928,1.438v1.984h0.505V13.828z M-15.836,12.998h-0.496v2.488h0.496V12.998z"/>
					</g>
					<g id="g6399" transform="translate(561.7126,55.307404)">
						<path id="path6401" d="M-13.673,13.828c-0.034-0.151-0.073-0.316-0.176-0.582h1.847v-0.453h-1.423v-0.651h1.316v-0.453h-1.316
							v-0.656h1.316v-0.449h-1.316V9.557h-0.462v3.236h-0.163c-0.287-0.564-0.518-0.825-0.651-0.981l-0.292,0.39
							c0.468,0.485,0.742,1.213,0.845,1.681L-13.673,13.828z M-15.519,11.963h-0.009c-0.145-0.202-0.262-0.316-0.377-0.426
							l-0.197,0.453c0.475,0.477,0.762,0.999,0.951,1.889l0.454-0.083c-0.06-0.22-0.158-0.601-0.369-1.054V9.557h-0.453V11.963z"/>
					</g>
					<path id="path6403" d="M550.931,67.839h2.091v0.779h-2.091V67.839z M550.508,69.048h2.93v-1.641h-2.93V69.048z M552.511,65.529
						h0.912v1.086h-0.912V65.529z M550.099,67.037h1.666v-2.122h-0.411v0.188h-0.846v-0.22h-0.409V67.037L550.099,67.037z
						 M550.508,65.529h0.849v1.086h-0.849V65.529z M552.097,67.037h1.739v-2.154h-0.411v0.22h-0.914v-0.22h-0.414V67.037z"/>
					<g id="g6405" transform="translate(544.1658,51.982895)">
						<path id="path6407" d="M-13.673,13.828c1.295,0.941,1.732,1.792,1.8,1.937l-1.823,0.002v0.504h2.118v0.767h0.477v-0.767h0.971
							v-0.516h-0.967l0.001-2.684h-0.482l0.001,2.282c0,0-0.387-0.935-1.815-1.96L-13.673,13.828z"/>
					</g>
					<g id="g6409" transform="translate(532.5797,50.402801)">
						<path id="path6411" d="M-13.673,13.828h35.219"/>
					</g>
					<g id="g6413" transform="translate(532.5797,50.431793)">
						<path id="path6415" d="M-13.673,13.828h35.219V13.77h-35.219"/>
					</g>
				</g>
			</g>
		</g>
	</g>
</g>
</svg>
